<?xml version="1.0" encoding="utf-8"?>
<!-- Generator: Adobe Illustrator 22.0.1, SVG Export Plug-In . SVG Version: 6.00 Build 0)  -->
<!DOCTYPE svg PUBLIC "-//W3C//DTD SVG 1.1//EN" "http://www.w3.org/Graphics/SVG/1.1/DTD/svg11.dtd">
<svg version="1.1" id="Layer_1" xmlns="http://www.w3.org/2000/svg" xmlns:xlink="http://www.w3.org/1999/xlink" x="0px" y="0px"
	 viewBox="0 0 32 32" style="enable-background:new 0 0 32 32;" xml:space="preserve">
<style type="text/css">
	.st0{fill:#A70057;}
	.st1{fill:#FFFFFF;}
</style>
<g id="Ruby">
	<rect class="st0" width="32" height="32"/>
</g>
<g id="c">
	<g>
		<path class="st1" d="M12.5,10.6c0.5-0.7,1.2-1.3,2-1.7s1.8-0.7,2.9-0.7c1,0,1.9,0.2,2.8,0.7c0.9,0.4,1.6,1,2.1,1.7l0.1,0.1
			l4.3-3.8l0.1-0.1l-0.1-0.1c-1-1.2-2.3-2.1-4-2.8s-3.5-1-5.2-1c-1.8,0-3.5,0.3-5.1,0.9s-3,1.5-4.2,2.6S6,8.9,5.3,10.6s-1,3.4-1,5.4
			s0.4,3.9,1.1,5.5c0.7,1.6,1.7,3,2.9,4.1c1.2,1.1,2.6,2,4.3,2.6c1.6,0.6,3.3,0.9,5.1,0.9s3.6-0.3,5.1-0.9c1.6-0.6,2.9-1.5,3.9-2.5
			l0.1-0.1l-3.9-3.9l-0.1-0.1l-0.1,0.1c-0.6,0.7-1.3,1.2-2.2,1.6c-0.9,0.4-1.9,0.6-2.8,0.6c-1.1,0-2.1-0.2-3-0.7
			c-0.8-0.4-1.6-1-2.1-1.8c-0.6-0.7-1-1.6-1.3-2.5C11,18,10.9,17,10.9,16.1c0-0.9,0.1-1.9,0.4-2.8C11.5,12.2,11.9,11.4,12.5,10.6"/>
	</g>
</g>
</svg>
