<?xml version="1.0" encoding="utf-8"?>
<!-- Generator: Adobe Illustrator 22.0.1, SVG Export Plug-In . SVG Version: 6.00 Build 0)  -->
<svg version="1.1" xmlns="http://www.w3.org/2000/svg" xmlns:xlink="http://www.w3.org/1999/xlink" x="0px" y="0px"
	 viewBox="0 0 440.4 200.5" style="enable-background:new 0 0 440.4 200.5;" xml:space="preserve">
<style type="text/css">
	.st0{fill:none;}
	.st1{fill:#FFFFFF;}
</style>
<g id="Protection_Zone">
	<rect y="159.7" class="st0" width="40.8" height="40.8"/>
	<rect x="399.6" y="159.7" class="st0" width="40.8" height="40.8"/>
	<rect x="399.6" class="st0" width="40.8" height="40.8"/>
	<rect class="st0" width="40.8" height="40.8"/>
</g>
<g id="datacare">
	<g>
		<polygon class="st1" points="136.1,149.8 136.1,159.7 146,159.7 146,149.8 		"/>
		<polygon class="st1" points="120.2,149.8 120.2,159.7 130.1,159.7 130.1,149.8 		"/>
		<polygon class="st1" points="114.2,149.8 104.3,149.8 104.3,139.9 114.2,139.9 		"/>
		<polygon class="st1" points="88.5,149.8 88.5,159.7 98.4,159.7 98.4,149.8 		"/>
		<polygon class="st1" points="72.6,149.8 72.6,159.7 82.5,159.7 82.5,149.8 		"/>
		<polygon class="st1" points="40.9,139.9 40.9,149.8 50.8,149.8 50.8,139.9 		"/>
		<polygon class="st1" points="66.6,149.8 56.7,149.8 56.7,139.9 66.6,139.9 		"/>
		<g>
			<path class="st1" d="M222.4,115.4l-0.1,0.1c-1,1.4-2.4,2.6-4,3.4c-1.6,0.9-3.6,1.3-6,1.3c-2.1,0-4.1-0.4-5.8-1.1
				c-1.7-0.8-3.2-1.8-4.4-3.1c-1.2-1.3-2.1-2.9-2.8-4.7c-0.7-1.8-1-3.7-1-5.8c0-2.1,0.3-4.1,1-5.9c0.6-1.8,1.6-3.4,2.8-4.7
				c1.2-1.3,2.7-2.4,4.4-3.1c1.7-0.8,3.7-1.1,5.8-1.1c2,0,3.8,0.5,5.5,1.4c1.7,0.9,3,2.1,3.9,3.5l0.1,0.2l4.5-3.2l-0.1-0.1
				c-1.6-2.1-3.7-3.8-6.3-4.9c-2.6-1.1-5.2-1.6-7.7-1.6c-3,0-5.8,0.5-8.3,1.5c-2.5,1-4.6,2.4-6.3,4.1c-1.7,1.8-3.1,3.9-4,6.3
				c-1,2.4-1.4,5-1.4,7.9c0,2.8,0.5,5.5,1.4,7.9c1,2.4,2.3,4.5,4,6.3c1.7,1.8,3.9,3.1,6.3,4.1c2.4,1,5.2,1.5,8.3,1.5
				c3.2,0,6.1-0.6,8.4-1.8c2.3-1.2,4.3-2.8,5.9-4.7l0.1-0.1l-4.2-3.1L222.4,115.4z M256.5,108.3c0,1.6-0.3,3.2-0.8,4.6
				c-0.5,1.5-1.3,2.8-2.3,3.9c-1,1.1-2.2,2-3.7,2.7c-1.5,0.6-3.1,1-5,1c-1,0-2.1-0.1-3.1-0.4c-1-0.2-1.9-0.6-2.8-1.2
				c-0.8-0.5-1.5-1.2-2-2.1c-0.5-0.9-0.7-2-0.7-3.3c0-1.7,0.6-3.1,1.7-4.1c1.1-1,2.6-1.8,4.4-2.4c1.8-0.5,3.9-0.9,6.1-1.1
				c2.2-0.2,4.5-0.3,6.7-0.3h1.4V108.3z M262.1,120.2c-0.1-1.5-0.2-3-0.2-4.4V99.5c0-2.3-0.4-4.3-1.1-6c-0.8-1.7-1.8-3.2-3.1-4.3
				c-1.3-1.1-2.9-2-4.7-2.5c-1.8-0.6-3.7-0.8-5.7-0.8c-3.2,0-6.1,0.5-8.6,1.5c-2.5,1-4.6,2.3-6.1,3.9l-0.1,0.1l3.2,3.9l0.1-0.1
				c1.3-1.3,2.9-2.4,4.8-3.1c1.9-0.8,3.9-1.2,6.1-1.2c3.2,0,5.6,0.8,7.3,2.3c1.6,1.5,2.5,3.9,2.5,7v1c-3.3,0-6.5,0.1-9.6,0.4
				c-3.2,0.2-6,0.8-8.4,1.6c-2.5,0.8-4.4,2.1-5.9,3.8c-1.5,1.7-2.2,4-2.2,6.9c0,2.1,0.4,3.9,1.3,5.4c0.8,1.4,1.9,2.6,3.1,3.6
				c1.3,0.9,2.7,1.6,4.2,2c1.5,0.4,3,0.6,4.5,0.6c3,0,5.7-0.6,7.8-1.6c2.1-1.1,4-2.8,5.7-5.2c0,0.9,0.1,1.8,0.2,2.8
				c0.1,1,0.2,2,0.4,3l0,0.1h5.2l0-0.2C262.4,123.1,262.2,121.8,262.1,120.2 M290.9,85.9c-0.6-0.1-1.2-0.1-1.9-0.1
				c-2.7,0-5.1,0.7-7.2,2.1c-2,1.3-3.6,3-4.7,5c0-0.7,0-1.6-0.1-2.6c-0.1-1.2-0.1-2.3-0.2-3.3l0-0.2h-5.5l0,0.2
				c0.1,1.3,0.2,2.7,0.2,4.3c0.1,1.6,0.1,2.9,0.1,3.9v29.2h5.8v-19.2c0-2.5,0.3-4.6,0.9-6.3c0.6-1.7,1.4-3.2,2.4-4.3
				c1-1.1,2.1-1.9,3.4-2.4c1.3-0.5,2.7-0.8,4.1-0.8c0.7,0,1.5,0.1,2.2,0.2c0.7,0.1,1.3,0.2,1.6,0.3l0.2,0.1l0.8-5.5l-0.2,0
				C292,86.1,291.4,86,290.9,85.9 M177.2,108.1c0,3-0.8,5.3-2.5,7c-1.7,1.7-4.1,2.6-7.3,2.6c-0.8,0-1.6-0.1-2.3-0.2
				c-0.8-0.2-1.5-0.4-2.1-0.8c-0.6-0.4-1.1-0.8-1.5-1.4c-0.4-0.6-0.6-1.3-0.6-2.2c0-1.4,0.5-2.5,1.4-3.2c0.9-0.8,2.1-1.4,3.5-1.9
				c1.4-0.4,3-0.7,4.6-0.9c1.7-0.1,3.3-0.2,4.8-0.2h2V108.1z M183.1,89.9c-1.3-1.5-3.1-2.8-5.3-3.8c-2.2-1-5.1-1.4-8.5-1.4
				c-2.9,0-5.8,0.5-8.7,1.5c-2.8,1-5.4,2.5-7.6,4.6l-0.1,0.1l5.2,6.1l0.1-0.1c1.2-1.2,2.7-2.2,4.6-3.1c1.8-0.8,3.8-1.3,5.7-1.3
				c2.3,0,4.4,0.6,6.1,1.7c1.7,1.1,2.5,2.8,2.5,5.1v0.8c-2.9,0-5.9,0.2-8.9,0.4c-3.1,0.3-6,0.9-8.5,1.8c-2.6,0.9-4.7,2.2-6.3,3.9
				c-1.6,1.7-2.5,4.1-2.5,7c0,2.2,0.5,4.2,1.4,5.7c0.9,1.5,2.1,2.8,3.5,3.7c1.4,0.9,3,1.6,4.7,2c1.7,0.4,3.3,0.6,4.8,0.6
				c2.7,0,5.2-0.6,7.3-1.6c2.1-1.1,3.6-2.4,4.6-4.1v4.8h9.3v-23.4c0-1.9-0.3-3.9-0.8-5.8C185.3,93.3,184.4,91.5,183.1,89.9
				 M299.6,102.5c0.1-1.5,0.5-2.9,1.2-4.3c0.7-1.4,1.6-2.7,2.7-3.8c1.1-1.1,2.5-2,4-2.7c1.5-0.6,3.2-1,4.9-1c3.8,0,6.8,1.1,8.8,3.4
				c2,2.2,3.1,5,3.3,8.4H299.6z M329.3,97.2c-0.8-2.2-1.9-4.2-3.4-5.9c-1.5-1.7-3.4-3-5.6-4c-2.2-1-4.9-1.5-7.8-1.5
				c-2.7,0-5.2,0.5-7.5,1.5c-2.3,1-4.3,2.4-6,4.1c-1.7,1.8-3.1,3.9-4,6.3c-1,2.4-1.4,5-1.4,7.9c0,2.8,0.5,5.5,1.5,7.9
				c1,2.4,2.3,4.5,4,6.3c1.7,1.8,3.8,3.1,6.1,4.1c2.4,1,5,1.5,7.7,1.5c3.1,0,6-0.6,8.7-1.8c2.7-1.2,5.2-3.3,7.4-6.1l0.1-0.1
				l-4.3-3.4l-0.1,0.2c-1,1.7-2.6,3.2-4.6,4.4c-2,1.3-4.4,1.9-7.2,1.9c-1.9,0-3.6-0.4-5.2-1.1c-1.6-0.7-3-1.7-4.2-2.9
				c-1.2-1.2-2.1-2.6-2.8-4.2c-0.7-1.6-1-3.2-1.1-5h30.8l0-0.2c0.1-0.5,0.1-0.9,0.1-1.4v-1.2C330.4,101.9,330,99.5,329.3,97.2
				 M139.5,74.8h-9.7v11h-6.7v8h6.7v17.6c0,1.9,0.2,3.6,0.5,5.2c0.3,1.6,1,3.1,1.9,4.4c0.9,1.3,2.2,2.3,3.8,3
				c1.6,0.7,3.7,1.1,6.3,1.1c1.1,0,2.2-0.1,3.4-0.3c1.2-0.2,2.2-0.4,3.1-0.8l0.1,0l-0.3-7.9l-0.2,0.1c-0.6,0.3-1.2,0.5-1.9,0.6
				c-0.7,0.1-1.4,0.2-2,0.2c-2,0-3.4-0.5-3.9-1.6c-0.6-1.1-0.9-2.5-0.9-4.1V93.8h9.5v-8h-9.5V74.8z M69.1,109.4
				c-0.5,1.4-1.2,2.7-2.2,3.9c-1,1.1-2.1,2.1-3.5,2.8c-1.3,0.7-2.9,1.1-4.6,1.1c-1.8,0-3.4-0.4-4.8-1.1c-1.4-0.7-2.5-1.7-3.4-2.8
				c-0.9-1.1-1.6-2.5-2-3.9s-0.7-2.9-0.7-4.4c0-1.5,0.2-2.9,0.7-4.4c0.4-1.4,1.1-2.7,2-3.9c0.9-1.1,2-2.1,3.4-2.8
				c1.3-0.7,2.9-1.1,4.8-1.1c1.7,0,3.3,0.4,4.6,1.1c1.4,0.7,2.5,1.7,3.5,2.8c1,1.1,1.7,2.5,2.2,3.9c0.5,1.5,0.7,2.9,0.7,4.4
				C69.9,106.5,69.6,108,69.1,109.4 M69.6,90.6c-0.5-0.6-1.1-1.2-1.8-1.9c-0.8-0.7-1.7-1.3-2.7-1.9c-1-0.6-2.3-1.1-3.7-1.5
				c-1.4-0.4-3-0.6-4.7-0.6c-2.7,0-5.3,0.5-7.5,1.6c-2.3,1-4.3,2.5-5.9,4.3c-1.6,1.8-2.9,4-3.8,6.4c-0.9,2.4-1.4,5.1-1.4,7.9
				c0,2.8,0.4,5.5,1.3,8c0.9,2.5,2.1,4.7,3.8,6.5c1.6,1.8,3.6,3.3,5.9,4.4c2.3,1.1,5,1.6,7.9,1.6c2.7,0,5.3-0.6,7.7-1.8
				c2.3-1.1,4.1-2.8,5.4-4.9v5.5h9.4V63.9h-9.9V90.6z M111.3,108.1c0,3-0.8,5.3-2.5,7c-1.7,1.7-4.1,2.6-7.3,2.6
				c-0.8,0-1.6-0.1-2.3-0.2c-0.8-0.2-1.5-0.4-2.1-0.8c-0.6-0.4-1.1-0.8-1.5-1.4c-0.4-0.6-0.6-1.3-0.6-2.2c0-1.4,0.5-2.5,1.4-3.2
				c0.9-0.8,2.1-1.4,3.5-1.9c1.4-0.4,3-0.7,4.6-0.9c1.7-0.1,3.3-0.2,4.8-0.2h2V108.1z M117.2,89.9c-1.3-1.5-3.1-2.8-5.3-3.8
				c-2.2-1-5.1-1.4-8.5-1.4c-2.9,0-5.8,0.5-8.7,1.5c-2.8,1-5.4,2.5-7.6,4.6l-0.1,0.1l5.2,6.1l0.1-0.1c1.2-1.2,2.7-2.2,4.6-3.1
				c1.8-0.8,3.8-1.3,5.7-1.3c2.3,0,4.4,0.6,6.1,1.7c1.7,1.1,2.5,2.8,2.5,5.1v0.8c-2.9,0-5.9,0.2-8.9,0.4c-3.1,0.3-6,0.9-8.5,1.8
				c-2.6,0.9-4.7,2.2-6.3,3.9c-1.6,1.7-2.5,4.1-2.5,7c0,2.2,0.5,4.2,1.4,5.7c0.9,1.5,2.1,2.8,3.5,3.7c1.4,0.9,3,1.6,4.7,2
				c1.7,0.4,3.3,0.6,4.8,0.6c2.7,0,5.2-0.6,7.3-1.6c2.1-1.1,3.6-2.4,4.6-4.1v4.8h9.3v-23.4c0-1.9-0.3-3.9-0.8-5.8
				C119.4,93.3,118.5,91.5,117.2,89.9"/>
			<path class="st1" d="M399.5,50.1v-4.1h-4.9v-5.1h-5l0,5.1h-3.5v4.1h3.5v9.1c0,1,0.1,1.9,0.3,2.7c0.2,0.8,0.5,1.6,1,2.3
				c0.5,0.7,1.2,1.2,2,1.5c0.8,0.4,1.9,0.6,3.2,0.6c0.5,0,1.1,0,1.7-0.1s1.1-0.2,1.6-0.4l0.1,0l-0.2-4.1l-0.1,0.1
				c-0.3,0.1-0.6,0.2-1,0.3c-0.4,0.1-0.7,0.1-1.1,0.1c-1.1,0-1.7-0.3-2-0.8c-0.3-0.6-0.5-1.3-0.5-2.1v-9.1H399.5z"/>
			<path class="st1" d="M307.1,53.8c0.1-1.3,0.7-2.4,1.7-3.3c1-0.9,2.3-1.3,3.7-1.3c0.8,0,1.5,0.1,2,0.4c0.6,0.3,1.1,0.6,1.4,1
				c0.4,0.4,0.7,0.9,0.8,1.5c0.2,0.5,0.3,1.1,0.3,1.7H307.1z M319.4,48.1c-0.9-0.9-1.9-1.6-3.1-2c-1.2-0.5-2.5-0.7-3.8-0.7
				c-1.5,0-2.9,0.3-4.2,0.8c-1.3,0.5-2.4,1.2-3.3,2.2c-0.9,0.9-1.7,2.1-2.2,3.4c-0.5,1.3-0.8,2.8-0.8,4.4c0,1.6,0.3,3.1,0.8,4.4
				c0.5,1.3,1.3,2.4,2.2,3.3c0.9,0.9,2.1,1.6,3.4,2.1c1.3,0.5,2.7,0.7,4.3,0.7c3.7,0,6.6-1.3,8.5-4l0.1-0.1l-3.4-2.7l-0.1,0.1
				c-0.5,0.8-1.2,1.4-2.1,1.8c-0.8,0.4-1.9,0.7-3.1,0.7c-0.7,0-1.4-0.1-2-0.4c-0.6-0.2-1.2-0.6-1.7-1c-0.5-0.4-0.9-0.9-1.2-1.5
				c-0.3-0.5-0.5-1.2-0.5-1.8h15l0-0.1c0-0.2,0-0.4,0-0.7v-0.7c0-1.8-0.2-3.4-0.7-4.7C321,50.1,320.3,49,319.4,48.1"/>
			<path class="st1" d="M289.8,51.6c0.4-0.6,1-1.1,1.7-1.4c0.7-0.4,1.5-0.5,2.3-0.5c0.8,0,1.6,0.2,2.3,0.5c0.7,0.4,1.3,0.8,1.7,1.3
				l0.1,0.1l3.4-3l0.1-0.1l-0.1-0.1c-0.8-1-1.9-1.7-3.3-2.3c-1.4-0.5-2.8-0.8-4.3-0.8c-1.5,0-2.8,0.3-4.1,0.7
				c-1.3,0.5-2.4,1.2-3.4,2.1c-1,0.9-1.7,2-2.3,3.3c-0.6,1.3-0.9,2.8-0.9,4.4c0,1.6,0.3,3.1,0.9,4.4c0.6,1.3,1.3,2.4,2.3,3.3
				c1,0.9,2.1,1.6,3.4,2.1c1.3,0.5,2.7,0.7,4.2,0.7c1.5,0,2.9-0.2,4.2-0.7c1.3-0.5,2.4-1.2,3.2-2.1l0.1-0.1l-3.2-3.2l-0.1-0.1
				l-0.1,0.1c-0.5,0.6-1.1,1-1.8,1.3c-0.8,0.3-1.5,0.4-2.3,0.4c-0.9,0-1.7-0.2-2.4-0.5c-0.7-0.4-1.3-0.8-1.7-1.4
				c-0.5-0.6-0.8-1.3-1-2c-0.2-0.7-0.3-1.5-0.3-2.3c0-0.8,0.1-1.5,0.3-2.3C289,52.9,289.4,52.2,289.8,51.6"/>
			<path class="st1" d="M360,47.9c-0.6-0.7-1.4-1.4-2.3-1.8c-0.9-0.5-2.1-0.7-3.4-0.7c-1.5,0-2.8,0.4-3.9,1.1
				c-1,0.7-1.8,1.5-2.2,2.4v-3h-4.9v19.9h5.1v-11c0-0.6,0.1-1.3,0.3-1.9c0.2-0.6,0.5-1.2,0.8-1.7c0.4-0.5,0.8-0.9,1.4-1.2
				c0.6-0.3,1.2-0.5,2-0.5c0.8,0,1.4,0.2,1.9,0.5c0.5,0.3,0.8,0.7,1.1,1.2c0.3,0.5,0.4,1.1,0.5,1.7c0.1,0.6,0.1,1.2,0.1,1.8v11h5.1
				V53.4c0-1-0.1-2-0.4-3C361.1,49.5,360.6,48.6,360,47.9"/>
			<path class="st1" d="M330.8,49.7c0.6-0.3,1.4-0.5,2.1-0.5c0.9,0,1.7,0.2,2.5,0.6c0.8,0.4,1.4,0.9,1.8,1.5l0.1,0.1l3.3-3l-0.1-0.1
				c-0.8-1-1.9-1.8-3.3-2.3c-1.4-0.5-2.8-0.7-4.2-0.7c-1,0-2,0.1-2.9,0.4c-0.9,0.3-1.8,0.6-2.5,1.1c-0.7,0.5-1.4,1.2-1.8,2
				c-0.5,0.8-0.7,1.8-0.7,2.9c0,0.9,0.2,1.7,0.5,2.4c0.3,0.6,0.8,1.2,1.3,1.6c0.6,0.4,1.2,0.8,1.9,1c0.7,0.3,1.4,0.5,2.2,0.6
				c1.5,0.4,2.6,0.7,3.4,1.1c0.7,0.3,1.1,0.9,1.1,1.7c0,0.4-0.1,0.8-0.3,1.1c-0.2,0.3-0.4,0.5-0.7,0.7c-0.3,0.2-0.6,0.3-1,0.4
				c-0.4,0.1-0.7,0.1-1.1,0.1c-1,0-2-0.2-2.9-0.7c-0.9-0.5-1.6-1-2.1-1.7l-0.1-0.1l-3.4,3.2l0.1,0.1c1,1,2.2,1.9,3.7,2.4
				c1.5,0.6,3,0.9,4.5,0.9c1.1,0,2.1-0.1,3.1-0.3c1-0.2,1.9-0.6,2.7-1.1c0.8-0.5,1.4-1.2,1.8-2.1c0.5-0.8,0.7-1.9,0.7-3.1
				c0-1-0.2-1.8-0.6-2.5c-0.4-0.7-0.9-1.3-1.5-1.7c-0.6-0.5-1.3-0.8-2.1-1.1c-0.8-0.3-1.5-0.5-2.3-0.7c-1.4-0.3-2.5-0.7-3.2-1
				c-0.7-0.3-1-0.8-1-1.5C329.9,50.6,330.2,50.1,330.8,49.7"/>
			<path class="st1" d="M369.7,53.8c0.1-1.3,0.7-2.4,1.7-3.3c1-0.9,2.3-1.3,3.7-1.3c0.8,0,1.5,0.1,2,0.4c0.6,0.3,1.1,0.6,1.4,1
				c0.4,0.4,0.7,0.9,0.8,1.5c0.2,0.5,0.3,1.1,0.3,1.7H369.7z M382,48.1c-0.9-0.9-1.9-1.6-3.1-2c-1.2-0.5-2.5-0.7-3.8-0.7
				c-1.5,0-2.9,0.3-4.2,0.8c-1.3,0.5-2.4,1.2-3.3,2.2c-0.9,0.9-1.7,2.1-2.2,3.4c-0.5,1.3-0.8,2.8-0.8,4.4c0,1.6,0.3,3.1,0.8,4.4
				c0.5,1.3,1.3,2.4,2.2,3.3c0.9,0.9,2.1,1.6,3.4,2.1c1.3,0.5,2.7,0.7,4.3,0.7c3.7,0,6.6-1.3,8.5-4l0.1-0.1l-3.4-2.7l-0.1,0.1
				c-0.5,0.8-1.2,1.4-2.1,1.8c-0.8,0.4-1.9,0.7-3.1,0.7c-0.7,0-1.4-0.1-2-0.4c-0.6-0.2-1.2-0.6-1.7-1c-0.5-0.4-0.9-0.9-1.2-1.5
				c-0.3-0.5-0.5-1.2-0.5-1.8h15l0-0.1c0-0.2,0-0.4,0-0.7v-0.7c0-1.8-0.2-3.4-0.7-4.7C383.5,50.1,382.8,49,382,48.1"/>
		</g>
	</g>
	<g>
	</g>
	<g>
	</g>
	<g>
	</g>
	<g>
	</g>
	<g>
	</g>
	<g>
	</g>
</g>
</svg>
