<?xml version='1.0' encoding='utf-8'?>
<!-- Generator: imaengine 6.0   -->
<svg xmlns:xlink="http://www.w3.org/1999/xlink" xmlns="http://www.w3.org/2000/svg" viewBox="0,0,32,32" style="enable-background:new 0 0 32 32;" version="1.1">
<defs/>
<g id="layer1">
<path d="M12.5,10.6C13,9.9 13.7,9.3 14.5,8.9C15.3,8.5 16.3,8.2 17.4,8.2C18.4,8.2 19.3,8.4 20.2,8.9C21.1,9.3 21.8,9.9 22.3,10.6L22.4,10.7L26.7,6.9L26.8,6.8L26.7,6.7C25.7,5.5 24.4,4.6 22.7,3.9C21,3.2 19.2,2.9 17.5,2.9C15.7,2.9 14,3.2 12.4,3.8C10.8,4.4 9.4,5.3 8.2,6.4C7,7.5 6,8.9 5.3,10.6C4.6,12.3 4.3,14 4.3,16C4.3,18 4.7,19.9 5.4,21.5C6.1,23.1 7.1,24.5 8.3,25.6C9.5,26.7 10.9,27.6 12.6,28.2C14.2,28.8 15.9,29.1 17.7,29.1C19.5,29.1 21.3,28.8 22.8,28.2C24.4,27.6 25.7,26.7 26.7,25.7L26.8,25.6L22.9,21.7L22.8,21.6L22.7,21.7C22.1,22.4 21.4,22.9 20.5,23.3C19.6,23.7 18.6,23.9 17.7,23.9C16.6,23.9 15.6,23.7 14.7,23.2C13.9,22.8 13.1,22.2 12.6,21.4C12,20.7 11.6,19.8 11.3,18.9C11,18 10.9,17 10.9,16.1C10.9,15.2 11,14.2 11.3,13.3C11.5,12.2 11.9,11.4 12.5,10.6L12.5,10.6Z" fill="#FFFFFF"/>
</g>
</svg>
